PathFileType	3	(X/Y/Z)	static.trc																																																																												
DataRate	CameraRate	NumFrames	NumMarkers	Units	OrigDataRate	OrigDataStartFrame	OrigNumFrames																																																																								
100	100	8	26	mm	100	228	260																																																																								
Frame#	Time	RAcromium			LAcromium			C7			Clavicle			VSacral			RASIS			LASIS			RHip			LHip			RKneeLat			RKneeMed			LKneeMed			LKneeLat			LShankFront			RShankFront			RAnkleLat			RAnkleMed			LAnkleMed			LAnkleLat			LToeLat			LToeTip			RToeTip			RToeLat			RHeel			LHeel			T10		
		X1	Y1	Z1	X2	Y2	Z2	X3	Y3	Z3	X4	Y4	Z4	X5	Y5	Z5	X6	Y6	Z6	X7	Y7	Z7	X8	Y8	Z8	X9	Y9	Z9	X10	Y10	Z10	X11	Y11	Z11	X12	Y12	Z12	X13	Y13	Z13	X14	Y14	Z14	X15	Y15	Z15	X16	Y16	Z16	X17	Y17	Z17	X18	Y18	Z18	X19	Y19	Z19	X20	Y20	Z20	X21	Y21	Z21	X22	Y22	Z22	X23	Y23	Z23	X24	Y24	Z24	X25	Y25	Z25	X26	Y26	Z26
228	2.27	894.98956	1559.644	-451.49695	878.95367	1562.0271	-700.38708	851.53815	1584.038	-569.74194	1003.7366	1481.1122	-586.66772	797.62708	1087.2847	-557.11249	973.88202	1083.0945	-432.52505	979.33185	1077.6843	-700.45282	904.64807	993.7298	-392.52805	897.87646	985.47168	-746.30347	908.74622	533.31708	-413.77618	883.42712	520.84949	-544.20441	904.82935	537.00043	-606.30304	904.2135	546.39392	-726.59784	930.84546	438.40277	-689.90277	951.10791	448.97232	-467.51486	833.45917	83.115639	-420.82086	854.97302	92.570892	-504.5098	854.64319	96.67495	-626.7312	820.30243	74.809151	-704.98346	973.64099	19.098007	-745.38977	1043.2465	22.40785	-679.90424	1044.4884	20.912855	-457.21783	972.73334	19.797443	-379.95035	747.24847	10.682817	-466.23288	748.18494	9.9414616	-650.76422	791.36737	1292.2074	-565.58423
229	2.28	895.159	1559.595	-451.4317	879.1546	1562.0146	-700.29321	851.71442	1584.0592	-569.68475	1003.8875	1481.074	-586.62109	797.69507	1087.2697	-557.11658	974.00555	1083.1017	-432.47726	979.42133	1077.6597	-700.46924	904.60583	993.71716	-392.56384	897.94696	985.4353	-746.30707	908.77747	533.31897	-413.74997	883.56439	520.86279	-544.17517	905.11566	537.21753	-606.21155	904.2688	546.36499	-726.59534	930.89117	438.41034	-689.88519	950.61926	448.69745	-466.91559	833.56769	83.134109	-420.63861	854.99292	92.478134	-504.54794	854.62604	96.699745	-626.65375	820.375	74.750725	-704.9812	973.73633	19.127554	-745.25421	1043.1899	22.353828	-679.88757	1044.566	20.939217	-457.15604	972.68054	19.831326	-379.99612	747.26428	10.648499	-466.23172	748.17493	9.8874731	-650.73944	791.46454	1292.2162	-565.58197
230	2.29	895.29132	1559.5811	-451.36554	879.33289	1562.036	-700.25635	851.89819	1584.0815	-569.61609	1004.0596	1481.019	-586.53412	797.71301	1087.2753	-557.10724	973.97388	1083.0475	-432.5155	979.47015	1077.6438	-700.45831	904.6366	993.71033	-392.54391	897.98138	985.43256	-746.29095	908.74536	533.29993	-413.77914	883.62805	520.85803	-544.21027	904.91772	536.99615	-606.34979	904.28491	546.38788	-726.60791	930.88812	438.39993	-689.88617	950.97809	448.77283	-467.26413	833.44067	83.128777	-420.81927	855.0752	92.474396	-504.55225	854.52081	96.720131	-626.77045	820.29645	74.862869	-704.95404	973.65942	19.157503	-745.31287	1043.2177	22.398405	-679.90137	1044.5206	20.913486	-457.21332	972.71039	19.788671	-379.95895	747.31317	10.599512	-466.24539	748.19122	9.9177742	-650.75555	791.48889	1292.2458	-565.54889
231	2.3	895.46039	1559.5583	-451.28058	879.50055	1562.0641	-700.16217	852.07135	1584.1045	-569.54358	1004.1826	1480.9589	-586.49036	797.77631	1087.28	-557.09723	973.95953	1083.0551	-432.50244	979.51514	1077.6246	-700.38702	904.65509	993.68463	-392.51709	898.04425	985.4339	-746.25763	908.76807	533.30334	-413.73495	883.44666	520.89496	-544.18536	905.09283	537.08508	-606.18262	904.28113	546.37341	-726.55334	930.87378	438.35855	-689.84302	951.02826	448.74533	-467.29236	833.54572	83.106041	-420.66614	855.14703	92.391602	-504.49301	854.52808	96.704498	-626.74951	820.3222	74.784401	-704.96826	973.66565	19.107456	-745.3548	1043.2307	22.407701	-679.84033	1044.4521	20.926046	-457.30615	972.73871	19.759783	-379.94238	747.22864	10.688073	-466.22922	748.17175	9.9193487	-650.75269	791.69293	1292.2633	-565.52917
232	2.31	895.64539	1559.5332	-451.2395	879.67322	1562.0787	-700.08667	852.28662	1584.1243	-569.48364	1004.3326	1480.9385	-586.38666	797.81323	1087.3048	-557.07745	974.0213	1083.0311	-432.4245	979.59668	1077.6146	-700.35736	904.66571	993.69781	-392.51202	898.07227	985.42834	-746.26709	908.70496	533.3446	-413.72446	883.53577	520.8432	-544.17902	905.19629	537.17737	-606.06555	904.29095	546.40564	-726.55078	930.86005	438.36255	-689.82324	950.94269	448.70703	-467.2175	833.4101	83.112534	-420.82126	855.10992	92.353531	-504.51547	854.61377	96.658638	-626.7204	820.28766	74.789474	-704.99072	973.58929	19.11713	-745.39685	1043.2012	22.416313	-679.90118	1044.3843	20.926664	-457.32419	972.74701	19.784658	-379.92096	747.28265	10.642211	-466.24014	748.18262	9.863925	-650.76263	791.77985	1292.3074	-565.50153
233	2.32	895.82806	1559.5144	-451.16635	879.84082	1562.1055	-700.01587	852.5014	1584.1461	-569.42767	1004.4303	1480.8795	-586.38824	797.85272	1087.3386	-557.06403	974.05927	1082.9689	-432.41046	979.45789	1077.6138	-700.54816	904.6817	993.70935	-392.46121	898.07104	985.45819	-746.25031	908.77075	533.32941	-413.71475	883.59766	520.86444	-544.11737	904.90759	536.98145	-606.25165	904.26392	546.3363	-726.54834	930.854	438.3696	-689.83844	950.91913	448.80322	-467.2261	833.51233	83.142784	-420.69598	855.09808	92.33078	-504.57239	854.43811	96.745407	-626.74487	820.29858	74.790825	-704.9812	973.60229	19.156507	-745.41486	1043.1937	22.464251	-679.86633	1044.4712	20.91987	-457.15073	972.70013	19.771368	-379.89993	747.22223	10.677468	-466.26926	748.22491	9.8566561	-650.77112	791.86621	1292.3417	-565.49384
234	2.33	895.93256	1559.5148	-451.10742	880.02655	1562.1237	-699.94952	852.6969	1584.1577	-569.37561	1004.545	1480.8279	-586.34192	797.87994	1087.3568	-557.04303	974.15948	1083.0002	-432.38165	979.5528	1077.5973	-700.41327	904.68494	993.70959	-392.44507	898.1311	985.41925	-746.22565	908.65875	533.32037	-413.71539	883.66052	520.82587	-544.09686	904.98456	537.01599	-606.14185	904.25116	546.33929	-726.55164	930.79089	438.33218	-689.83179	950.89685	448.72751	-467.21628	833.42084	83.130661	-420.80978	854.98773	92.468262	-504.60327	854.4671	96.718536	-626.72223	820.30267	74.775513	-705.01941	973.638	19.145029	-745.35791	1043.1864	22.41176	-679.86835	1044.5999	20.945028	-457.15094	972.76068	19.789986	-379.9194	747.26544	10.683045	-466.21838	748.20679	9.8249702	-650.78229	791.92212	1292.3921	-565.44904
235	2.34	896.07996	1559.491	-451.04596	880.15887	1562.1404	-699.88116	852.88843	1584.1855	-569.30444	1004.7073	1480.8116	-586.27863	797.94159	1087.3894	-557.00909	974.24323	1083.0056	-432.33701	979.62408	1077.5948	-700.39948	904.67725	993.70734	-392.42612	898.15881	985.43976	-746.15765	908.73889	533.36963	-413.62012	883.65259	520.83301	-544.07251	904.83514	537.01013	-606.17499	904.18378	546.3266	-726.505	930.72638	438.34595	-689.81403	950.89557	448.73535	-467.22031	833.51508	83.147415	-420.67145	855.00684	92.439552	-504.58508	854.39508	96.707222	-626.7381	820.27271	74.751884	-704.97449	973.62115	19.221134	-745.32001	1043.1862	22.452452	-679.81708	1044.3909	20.943098	-457.29562	972.70538	19.812368	-379.93985	747.30652	10.630261	-466.22021	748.20667	9.822938	-650.77924	792.08398	1292.4043	-565.42188
